<?xml version="1.0" encoding="UTF-8"?>
<svg id="Capa_1" data-name="Capa 1" xmlns="http://www.w3.org/2000/svg" version="1.1" viewBox="0 0 50.2 66.6">
  <defs>
    <style>
      .cls-1 {
        fill: #32dc32;
        stroke-width: 0px;
      }
    </style>
  </defs>
  <path class="cls-1" d="M39,28.5c-.2-.3-.9-1.4-1.1-1.7-3.3-5.6-8.9-8.4-12.5-6.2s-3.1,4.6-2.4,8.2c-.9.1-1.9.5-2.9,1.1s-1,.7-1.4,1h0c-2.7-2.2-5.7-2.9-8-1.6-3.6,2.1-3.8,8.4-.5,14s.8,1.4,1,1.8.8,1.3,1,1.6c3.3,5.6,8.9,8.4,12.5,6.2s3.4-6.8,1.3-11.8l-3.9,2.3c.8,2.4,1.1,4.2,0,4.9s-4.4-1.1-6.4-4.5-.5-.8-.6-1-.5-.9-.6-1.1c-2-3.4-2.4-6.9-.9-7.8s2.6.4,4.3,2.3c0,0,.9-1.6,3.2-3.2.8-.6,1.8-1.2,2.9-1.6,1.2-.5,2.6-1,4.3-1.3-.8-2.4-1-4.2,0-4.9,1.5-.9,4.4,1.1,6.4,4.5l1.2,2c2,3.4,2.4,6.9.9,7.8s-2.6-.4-4.3-2.3l-3.9,2.3c3.4,4.3,7.8,6.4,10.9,4.5s3.8-8.4.5-14-.8-1.3-.9-1.6Z"/>
</svg>