<?xml version="1.0" encoding="UTF-8"?>
<svg id="Capa_1" data-name="Capa 1" xmlns="http://www.w3.org/2000/svg" version="1.1" viewBox="0 0 145.4 126.7">
  <defs>
    <style>
      .cls-1 {
        fill: #32dc32;
      }

      .cls-1, .cls-2 {
        stroke-width: 0px;
      }

      .cls-2 {
        fill: #333;
      }
    </style>
  </defs>
  <circle class="cls-2" cx="70.7" cy="42.5" r="29.2"/>
  <path class="cls-2" d="M20.1,101.7h4.5c-.7,5.4-3.4,9.5-7.1,9.5-4.2,0-7.6-5.3-7.6-11.8,0-.3,0-1.7,0-2s0-1.5,0-1.8c0-6.5,3.4-11.8,7.6-11.8s6.4,4.1,7.1,9.5h-4.5c-.5-2.5-1.3-4.2-2.5-4.2s-3.2,3.2-3.2,7.2,0,.9,0,1.1,0,1,0,1.2c0,4,1.4,7.2,3.2,7.2s2-1.7,2.5-4.2Z"/>
  <path class="cls-1" d="M131.2,101h4.5c-.7,5.4-3.4,9.5-7.1,9.5-4.2,0-7.6-5.3-7.6-11.8,0-.3,0-1.7,0-2s0-1.5,0-1.8c0-6.5,3.4-11.8,7.6-11.8s6.4,4.1,7.1,9.5h-4.5c-.5-2.5-1.3-4.2-2.5-4.2s-3.2,3.2-3.2,7.2,0,.9,0,1.1c0,.2,0,1,0,1.2,0,4,1.4,7.2,3.2,7.2s2-1.7,2.5-4.2Z"/>
  <path class="cls-1" d="M57.3,105.9c1.8,0,3.2-3.2,3.2-7.2s0-1,0-1.2,0-.9,0-1.1c0-4-1.4-7.2-3.2-7.2s-2,1.7-2.5,4.2h-4.5c.7-5.4,3.4-9.5,7.1-9.5s7.6,5.3,7.6,11.8c0,.3,0,1.5,0,1.8s0,1.7,0,2c0,6.5-3.4,11.8-7.6,11.8s-6.4-4.1-7.1-9.5h4.5c.5,2.5,1.3,4.2,2.5,4.2Z"/>
  <path class="cls-2" d="M47.9,97.4c0,.4,0,1.7,0,2,0,6.5-4.5,11.8-10,11.8s-10-5.3-10-11.8,0-1.7,0-2,0-1.5,0-1.8c0-6.5,4.5-11.8,10-11.8s10,5.3,10,11.8,0,1.5,0,1.8ZM42.2,97.5c0-.2,0-.9,0-1.1,0-4-1.9-7.2-4.3-7.2s-4.3,3.2-4.3,7.2,0,.9,0,1.1,0,1,0,1.2c0,4,1.9,7.2,4.3,7.2s4.3-3.2,4.3-7.2,0-1,0-1.2Z"/>
  <path class="cls-1" d="M79.1,110.6l-3.7-8c-.1,0-.2,0-.3,0h-1.5v8h-5.3v-26.2h6.8c5,0,9.1,4.1,9.1,9.1s-1.5,5.7-3.7,7.4l4.5,9.8h-5.9ZM73.6,97.5h1.5c2.2,0,4-1.8,4-4s-1.8-4-4-4h-1.5v8Z"/>
  <path class="cls-1" d="M86.9,110.6v-26.2h5.3v26.2h-5.3Z"/>
  <path class="cls-1" d="M111,89.7h-5.5v20.9h-5.3v-20.9h-5.5v-5.3h16.3v5.3Z"/>
  <path class="cls-1" d="M113.3,110.6v-26.2h5.3v26.2h-5.3Z"/>
  <path class="cls-1" d="M86.9,42.6c0-.4,0-1.7,0-2,0-6.5-3.4-11.8-7.6-11.8s-5,2.3-6.2,5.8c-.8-.3-1.8-.6-3-.6s-1.2,0-1.7.2h0c-1.2-3.3-3.4-5.5-6.1-5.5-4.2,0-7.6,5.2-7.6,11.8s0,1.7,0,2,0,1.5,0,1.8c0,6.5,3.4,11.8,7.6,11.8s6.4-4.1,7.1-9.5h-4.6c-.5,2.4-1.2,4.2-2.5,4.2s-3.2-3.2-3.2-7.2,0-.9,0-1.1,0-1,0-1.3c0-4,1.4-7.2,3.2-7.2s2,1.7,2.5,4.2c0,0,1.6-.9,4.4-1.1,1,0,2.1,0,3.3,0,1.3.2,2.8.5,4.3,1,.5-2.4,1.3-4.2,2.5-4.2,1.8,0,3.2,3.2,3.2,7.2v2.4c0,4-1.4,7.2-3.2,7.2s-2-1.7-2.5-4.2h-4.5c.7,5.4,3.4,9.5,7.1,9.5s7.6-5.2,7.6-11.8,0-1.5,0-1.8Z"/>
</svg>