<?xml version="1.0" encoding="utf-8"?>
<!-- Generator: Adobe Illustrator 16.0.3, SVG Export Plug-In . SVG Version: 6.00 Build 0)  -->
<!DOCTYPE svg PUBLIC "-//W3C//DTD SVG 1.1//EN" "http://www.w3.org/Graphics/SVG/1.1/DTD/svg11.dtd">
<svg version="1.1" id="_x32_" xmlns="http://www.w3.org/2000/svg" xmlns:xlink="http://www.w3.org/1999/xlink" x="0px" y="0px"
	 width="800px" height="800px" viewBox="0 0 800 800" enable-background="new 0 0 800 800" xml:space="preserve">
<g>
	<path fill="#32CD32" d="M269.727,160c-66.679,0-120.925,54.28-120.925,120.997c0,9.269,7.509,16.781,16.77,16.781
		c9.263,0,16.771-7.513,16.771-16.781c0-48.213,39.2-87.436,87.385-87.436c9.263,0,16.771-7.513,16.771-16.781
		C286.497,167.513,278.99,160,269.727,160z"/>
	<path fill="#32CD32" d="M565.089,471.111c30.315-47.557,47.883-103.979,47.883-164.444C612.972,137.556,475.496,0,306.486,0
		c-60.431,0-116.82,17.578-164.347,47.911c-37.867,24.156-70.092,56.4-94.234,94.289C17.589,189.756,0,246.2,0,306.667
		c0,169.089,137.497,306.666,306.485,306.666c60.432,0,116.843-17.601,164.37-47.933C508.722,541.244,540.947,509,565.089,471.111z
		 M405.871,500.378c-29.805,15.378-63.606,24.067-99.386,24.067c-119.995,0-217.649-97.711-217.649-217.778
		c0-35.8,8.685-69.622,24.053-99.443c20.81-40.4,53.88-73.467,94.255-94.268c29.805-15.378,63.584-24.067,99.341-24.067
		c120.019,0,217.649,97.689,217.649,217.778c0,35.778-8.685,69.578-24.053,99.4C479.295,446.467,446.246,479.557,405.871,500.378z"
		/>
	<path fill="#32CD32" d="M780.493,686.178l-176.938-176.6c-25.187,36.8-57.455,69.065-94.233,94.289l176.939,176.6
		C699.275,793.489,716.332,800,733.367,800c17.056,0,34.113-6.511,47.128-19.533C806.501,754.422,806.501,712.222,780.493,686.178z"
		/>
</g>
</svg>
