<?xml version="1.0" encoding="UTF-8"?>
<svg id="Capa_1" data-name="Capa 1" xmlns="http://www.w3.org/2000/svg" version="1.1" viewBox="0 0 73.5 83.1">
  <defs>
    <style>
      .cls-1 {
        fill: #32dc32;
        stroke-width: 0px;
      }

      .cls-2 {
        fill: none;
        stroke: #333;
        stroke-miterlimit: 10;
        stroke-width: 6px;
      }
    </style>
  </defs>
  <path class="cls-1" d="M53.6,42.6c0-.4,0-1.7,0-2,0-6.5-3.4-11.8-7.6-11.8s-5,2.3-6.2,5.8c-.8-.3-1.8-.6-3-.6s-1.2,0-1.7.2h0c-1.2-3.3-3.4-5.5-6.1-5.5-4.2,0-7.6,5.2-7.6,11.8s0,1.7,0,2,0,1.5,0,1.8c0,6.5,3.4,11.8,7.6,11.8s6.4-4.1,7.1-9.5h-4.6c-.5,2.4-1.2,4.2-2.5,4.2s-3.2-3.2-3.2-7.2,0-.9,0-1.1,0-1,0-1.3c0-4,1.4-7.2,3.2-7.2s2,1.7,2.5,4.2c0,0,1.6-.9,4.4-1.1,1,0,2.1,0,3.3,0,1.3.2,2.8.5,4.3,1,.5-2.4,1.3-4.2,2.5-4.2,1.8,0,3.2,3.2,3.2,7.2v2.4c0,4-1.4,7.2-3.2,7.2s-2-1.7-2.5-4.2h-4.5c.7,5.4,3.4,9.5,7.1,9.5s7.6-5.2,7.6-11.8,0-1.5,0-1.8Z"/>
  <circle class="cls-2" cx="37.4" cy="42.5" r="29.2"/>
</svg>